<svg xmlns="http://www.w3.org/2000/svg" xmlns:xlink="http://www.w3.org/1999/xlink" version="1.1" x="0px" y="0px" viewBox="0 0 100 125" enable-background="new 0 0 100 100" xml:space="preserve"><path d="M46.049,57.44c1.293-2.854,2.582-5.71,3.88-8.562c3.695-8.118,8.161-15.737,14.69-21.938  c1.732-1.645,3.726-3.05,5.733-4.361c2.113-1.38,3.779-1.145,5.364,0.401c0.884,0.862,1.427,4.045,0.833,5.252  c-0.178,0.361-0.53,0.788-0.885,0.885c-3.279,0.892-4.853,3.668-6.518,6.154c-4.772,7.124-8.169,14.955-11.103,22.977  c-1.763,4.822-3.308,9.724-4.886,14.611c-0.405,1.256-0.921,2.217-2.392,2.274c-1.533,0.059-3.042-0.381-3.576-1.796  c-0.566-1.502-1.795-2.012-2.794-2.958c-5.264-4.987-11.353-9.198-14.987-15.76c-1.539-2.779-1.526-4.454,0.614-7.057  c0.777-0.945,0.981-2.826,2.692-2.398c1.414,0.353,2.989,0.997,3.957,2.02c2.62,2.768,4.973,5.791,7.385,8.752  c0.474,0.582,0.736,1.336,1.096,2.01C45.452,57.777,45.751,57.608,46.049,57.44z M93.691,86.373  c-0.697,4.382-1.266,4.979-5.92,5.297c-10.358,0.709-20.727,1.267-31.089,1.922c-13.743,0.869-27.506,1.528-41.125,3.763  c-4.419,0.725-6.788-1.292-6.772-5.843c0.009-2.623,0.14-5.246,0.218-7.87c0.051-1.71,0.525-3.442-0.932-4.95  c-0.397-0.411-0.19-1.443-0.194-2.19C7.822,65.572,7.83,54.64,7.711,43.71c-0.066-6.106-0.285-12.213-0.541-18.314  c-0.142-3.382-0.441-6.762-0.789-10.13C6.24,13.898,6.018,12.646,7.46,11.82c0.267-0.153,0.64-0.421,0.661-0.662  c0.316-3.608,2.777-3.526,5.591-3.789C22.957,6.503,32.16,5.192,41.397,4.22c4.888-0.514,9.809-0.758,14.722-0.985  c6.773-0.313,13.55-0.53,20.328-0.714c0.554-0.015,1.115-0.033,1.673-0.007c3.229,0,6.498,0.384,9.702,0.431  c0.609,0.009,1.125,0.157,1.566,0.388c0.817,0.033,1.634,0.073,2.452,0.092c0.468,0.669,0.906,1.36,1.31,2.073  c-0.053,0.872-0.1,1.778-0.16,2.814c0.139,0,0.263-0.001,0.399-0.001c-0.032,2.057,0.012,4.12,0.069,6.186  c-1.025,0.283-1.334,0.954-1.403,2.688c-0.272,6.879-0.578,13.766-0.524,20.647c0.074,9.399,0.479,18.796,0.722,28.194  c0.122,4.7,0.148,9.403,0.332,14.101c0.05,1.265,0.542,2.51,0.787,3.772C93.533,84.717,93.817,85.584,93.691,86.373z M81.81,14.481  c-12.504-2.091-56.299-0.495-64.938,2.351c0.351,22.623,0.7,45.088,1.054,67.925c1.131,0,2.184,0.074,3.223-0.012  c5.772-0.48,11.536-1.065,17.312-1.491c11.35-0.837,22.704-0.814,34.068-0.164c3.093,0.177,6.254,0.384,9.064-0.072  C84.926,59.832,83.195,37.122,81.81,14.481z"/><text x="0" y="115" fill="#000000" font-size="5px" font-weight="bold" font-family="'Helvetica Neue', Helvetica, Arial-Unicode, Arial, Sans-serif">Created by Nick Dominguez</text><text x="0" y="120" fill="#000000" font-size="5px" font-weight="bold" font-family="'Helvetica Neue', Helvetica, Arial-Unicode, Arial, Sans-serif">from the Noun Project</text></svg>