<svg xmlns="http://www.w3.org/2000/svg" xmlns:xlink="http://www.w3.org/1999/xlink" xmlns:sketch="http://www.bohemiancoding.com/sketch/ns" viewBox="0 0 99 118.75" version="1.1" x="0px" y="0px"><title>Imported Layers</title><desc>Created with Sketch.</desc><g stroke="none" stroke-width="1" fill="none" fill-rule="evenodd" sketch:type="MSPage"><path d="M74.3406015,49.7063342 C75.0285714,49.0499432 75.5924812,48.2161086 76.0488722,47.3740034 C77.612782,44.4920485 78.5338346,41.457462 78.7165414,38.1183643 C78.9105263,34.5837778 77.9601504,31.5273868 75.6218045,29.0078379 C73.493985,26.7131011 71.1,24.6642289 68.793985,22.5379131 C68.2962406,22.0792665 67.6969925,21.7176124 67.1067669,21.376259 C63.9984962,19.5755071 60.6120301,18.4920485 57.0699248,18.1965597 C52.8090226,17.8409206 48.5210526,17.7469357 44.2428571,17.689041 C40.687218,17.6416725 37.1766917,18.0965597 33.8233083,19.3988154 C31.112782,20.451447 28.7030075,21.9033267 27.0669173,24.4115973 C26.4135338,25.4146049 25.7729323,26.4334019 25.0263158,27.3649808 C23.9849624,28.6642289 23.5210526,30.151447 23.2954887,31.7582139 C22.9421053,34.2815222 23.2022556,36.7529507 23.7947368,39.2168605 C24.0052632,40.0905447 24.0315789,41.0085898 24.1503759,41.9055823 C24.3669173,43.5364094 24.3766917,45.2318981 24.8518797,46.7852816 C26.0586466,50.7296425 28.5917293,53.7882891 31.8308271,56.276259 C33.5503759,57.5973116 35.3030075,58.8755071 37.0526316,60.157462 C37.7180451,60.64468 38.0037594,61.2830259 37.9180451,62.0845297 C37.6736842,64.3552064 37.5075188,66.6394169 37.1270677,68.8875372 C36.9172932,70.1296425 36.7684211,71.2161086 37.9819549,72.1349056 C37.3240602,72.2491913 36.7864662,72.2521988 36.2488722,72.2484394 C35.1706767,72.2409206 34.0796992,72.1243793 33.0165414,72.2469357 C31.6496241,72.4040785 31.2646617,73.4176124 32.0067669,74.5905447 C32.2172932,74.9236274 32.5699248,75.251447 32.5969925,75.601071 C32.6834586,76.7431763 33.5834586,77.13265 34.3684211,77.5025748 C35.0706767,77.8341537 35.9067669,77.9401688 36.6962406,78.0146049 C40.4421053,78.3664846 44.187218,78.7461838 47.9413534,78.9777628 C52.2699248,79.2454319 56.6067669,79.3694921 60.9398496,79.5544545 C63.106015,79.6469357 63.6067669,79.0687402 63.1819549,76.9243793 C63.6969925,76.2958079 64.6067669,75.5123492 63.856391,74.7484394 C62.6654135,73.5349056 62.2451128,71.4439282 59.9413534,71.395056 C59.8526316,70.2176124 59.6263158,69.2935522 59.7428571,68.4146049 C60.3353383,63.957462 62.2736842,60.1672364 65.6511278,57.1657327 C66.8842105,56.070244 68.2105263,55.0792665 69.4646617,54.0063342 C71.1120301,52.5980635 72.7736842,51.201071 74.3406015,49.7063342 L74.3406015,49.7063342 Z M68.4210526,41.3206199 C68.1969925,42.7815222 67.7308271,44.2055823 67.3571429,45.6431763 C67.0240602,46.9221237 66.3045113,47.882274 65.106015,48.5085898 C63.1744361,49.5176124 61.4511278,50.789041 59.9706767,52.4243793 C59.2157895,53.257462 58.1533835,53.8040785 57.3045113,54.563477 C56.4112782,55.363477 55.5684211,56.23265 55.8022556,57.6266349 C55.8451128,57.8830259 55.7067669,58.182274 55.612782,58.4469357 C54.3984962,61.8770109 53.9796992,65.4318981 53.9255639,69.0469357 C53.912782,69.8928003 53.8548872,70.7371613 53.8090226,71.7852816 C50.6007519,71.9491913 47.4887218,72.1070861 44.1406015,72.2777628 C44.106015,71.6724996 44.0526316,71.1491913 44.0511278,70.6258831 C44.0466165,68.9740034 44.1421053,67.3183643 44.0496241,65.6717477 C43.9293233,63.5085898 43.0654135,61.5867853 41.7225564,59.9040785 C40.7112782,58.6356575 40.0255639,57.2755071 39.6030075,55.6755071 C38.8864662,52.9597176 37.2676692,50.7499432 35.0488722,49.001071 C34.6007519,48.6476876 34.2112782,48.1965597 33.7218045,47.9221237 C32.3781955,47.1687402 32.0774436,46.0206199 32.1729323,44.5852816 C32.4857143,39.8687402 33.5932331,35.4657327 36.8556391,31.8349056 C37.3879699,31.2431763 37.8849624,30.6025748 38.2924812,29.9213718 C38.5977444,29.4108455 38.7338346,28.7988154 39.0203008,28.0311462 C40.8255639,26.9168605 42.9157895,25.9258831 45.2451128,25.4973116 C47.9360902,25.0018229 50.6285714,24.5146049 53.3157895,24.0025748 C55.624812,23.5627252 57.7827068,24.1161086 59.7586466,25.2033267 C64.5969925,27.8642289 67.5646617,31.9709958 68.537594,37.4085898 C68.7631579,38.6687402 68.6180451,40.0364094 68.4210526,41.3206199 L68.4210526,41.3206199 Z M61.0451128,84.9664846 C60.9593985,85.1131011 60.8353383,85.2409206 60.7736842,85.3958079 C60.0699248,87.1597176 59.9285714,87.2567101 58.1413534,87.2048304 C56.0421053,87.2048304 53.9413534,87.2604695 51.8443609,87.1935522 C47.6330827,87.0582139 43.4240602,86.8544545 39.2135338,86.6830259 C38.3676692,86.6484394 37.5195489,86.6521988 36.675188,86.5973116 C36.3413534,86.5747552 35.9977444,86.4807703 35.6894737,86.3484394 C34.6360902,85.895056 34.1556391,84.9687402 34.356391,83.8521988 C34.4984962,83.0627252 35.1195489,82.6243793 36.3120301,82.5612214 C40.9827068,82.3168605 45.6556391,82.1236274 50.3240602,81.8416725 C52.3112782,81.7221237 54.287218,81.4318981 56.2691729,81.219868 C57.6699248,81.0694921 59.0045113,81.3161086 60.2300752,81.9995673 C61.4338346,82.670244 61.7210526,83.8093417 61.0451128,84.9664846 L61.0451128,84.9664846 Z M1.89398496,30.4055823 C1.17593985,29.6740034 0.557894737,29.0431763 0,28.4747552 C0.251879699,27.7604695 0.481203008,27.24468 0.615037594,26.7048304 C0.89924812,25.5537026 1.16090226,25.2552064 2.31503759,25.2958079 C3.50902256,25.3379131 4.7,25.5040785 5.89172932,25.6191161 C8.54360902,25.8755071 11.1977444,26.1085898 13.8458647,26.4018229 C15.2451128,26.557462 16.4368421,27.270244 17.5218045,28.1131011 C18.5308271,28.8958079 18.6195489,29.5461838 17.7992481,30.54468 C17.4045113,31.0251312 17.4541353,31.4401688 17.4954887,31.9559582 C17.5556391,32.7108455 17.1609023,33.1521988 16.3947368,33.1694921 C15.6,33.1875372 14.8030075,33.1236274 14.0090226,33.1484394 C11.393985,33.2296425 8.77969925,33.3364094 6.16541353,33.4311462 C5.88045113,33.4416725 5.59548872,33.4491913 5.3112782,33.4416725 C2.97894737,33.3830259 2.01428571,32.4740034 1.89398496,30.4055823 L1.89398496,30.4055823 Z M27.3691729,62.6687402 C28.1007519,63.3349056 28.0097744,64.1679883 27.0721805,64.5882891 C24.5458647,65.7221237 22.3037594,67.3973116 19.5706767,68.1785146 C18.0977444,68.6003191 16.8526316,69.7867853 15.4691729,70.5649808 C14.4428571,71.1431763 13.3593985,71.6206199 12.2616541,72.1619733 C11.475188,71.8228755 10.7789474,71.5920485 10.1541353,71.2349056 C9.43984962,70.8258831 9.3481203,70.0755071 9.68646617,69.4349056 C10.4172932,68.0521988 11.0969925,66.5860334 12.1022556,65.4161086 C14.0834586,63.1108455 16.3766917,61.1364094 19.5977444,60.7973116 C20.1969925,60.7341537 20.9917293,60.7070861 21.4007519,61.0341537 C22.3368421,61.7807703 23.2406015,61.6123492 24.2736842,61.4777628 C25.4601504,61.3236274 26.506015,61.8815222 27.3691729,62.6687402 L27.3691729,62.6687402 Z M13.3804511,51.976259 C11.5112782,51.9958079 9.63609023,52.1506951 7.77969925,52.376259 C5.87368421,52.6078379 4.30451128,52.213853 3.12180451,50.5943041 C2.79849624,50.1506951 2.22932331,49.8935522 1.8593985,49.4755071 C0.916541353,48.4070861 1.17293233,47.182274 2.49774436,46.8416725 C5.74285714,46.0063342 9.01353383,45.2732515 12.2774436,44.5168605 C13.3932331,44.2589658 14.4172932,44.5537026 15.3684211,45.1529507 C16.2796992,45.7281387 17.1909774,46.3048304 18.1045113,46.876259 C18.7240602,47.2649808 19.1864662,47.7694921 19.0308271,48.5484394 C18.8759398,49.3213718 18.2714286,49.6236274 17.5428571,49.7379131 C17.1503759,49.7995673 16.7639098,49.8943041 16.3924812,49.970244 C15.6646617,51.8845297 15.4293233,51.9544545 13.3804511,51.976259 L13.3804511,51.976259 Z M12.5533835,11.4612214 C12.4533835,11.2777628 12.4323308,11.0153567 12.4654135,10.8033267 C12.5082707,10.5311462 12.6586466,10.0394169 12.7345865,10.04468 C14.3639098,10.1559582 13.9699248,7.73866501 15.5887218,7.68678531 C16.3789474,7.98528155 17.2804511,8.12964245 17.9406015,8.60708606 C21.3496241,11.0732515 24.7684211,13.5394169 27.6533835,16.6401688 C28.8180451,17.8920485 28.7090226,18.3537026 27.1345865,19.0830259 C26.9796992,19.1544545 26.7864662,19.1928003 26.6789474,19.3085898 C25.3165414,20.7792665 23.8526316,20.3025748 22.3142857,19.6251312 C19.5729323,18.4176124 17.0496241,16.9356575 15.1225564,14.5694921 C14.6586466,14.0003191 14.0097744,13.5837778 13.5315789,13.0236274 C13.1368421,12.5604695 12.8473684,12.001071 12.5533835,11.4612214 L12.5533835,11.4612214 Z M59.4345865,91.4830259 C60.6082707,92.6273868 60.4947368,93.5740034 58.9827068,94.1619733 C58.4090226,94.3852816 57.7789474,94.5356575 57.1661654,94.5687402 C53.5323308,94.7604695 49.9022556,95.0416725 46.2548872,94.6521988 C45.0285714,94.5213718 43.7548872,94.6619733 42.5210526,94.8191161 C40.2481203,95.1078379 38.4654135,93.8416725 36.5518797,93.0266349 C35.837594,92.7221237 35.8406015,91.9303943 36.0315789,91.2115973 C36.2172932,90.513853 36.7511278,90.389041 37.3541353,90.3875372 C39.7496241,90.382274 42.1451128,90.3852816 44.5413534,90.3852816 C44.5413534,90.4228755 44.5413534,90.4604695 44.5421053,90.4988154 C48.3052632,90.4018229 52.0684211,90.2912966 55.8315789,90.2153567 C57.175188,90.1882891 58.4120301,90.4860334 59.4345865,91.4830259 L59.4345865,91.4830259 Z M33.0142857,2.99280035 C32.9609023,2.77475524 32.9631579,2.54016877 32.9578947,2.31234922 C32.9225564,0.793552228 33.3473684,0.445431928 34.7909774,0.816860499 C35.0105263,0.873251476 35.2172932,0.977762755 35.4300752,1.0612214 C37.2406015,0.0439281682 39.0383459,0.519116138 40.2368421,2.30182291 C41.3548872,3.9649808 41.6451128,5.89580787 41.9879699,7.79204847 C42.2511278,9.24543193 42.356391,10.7318981 42.4646617,12.2085898 C42.5593985,13.4897928 42.2766917,13.7597176 40.975188,13.9800184 C39.3834586,14.2491913 37.6992481,14.6206199 36.4954887,13.2243793 C35.7383459,12.3469357 35.1496241,11.2213718 34.8097744,10.1078379 C34.0962406,7.77099584 33.593985,5.37024396 33.0142857,2.99280035 L33.0142857,2.99280035 Z M85.4458647,71.8717477 C85.0503759,72.895056 83.9233083,72.9108455 82.9270677,72.8747552 C82.8135338,72.870244 82.6984962,72.8740034 82.5849624,72.8740034 C82.5661654,72.9371613 82.5481203,73.0003191 82.5300752,73.063477 C81.281203,72.7206199 80.0300752,72.3882891 78.7864662,72.0296425 C78.4609023,71.9349056 78.1533835,71.6258831 77.8473684,71.6401688 C75.9902256,71.7251312 75.0616541,70.5318981 74.024812,69.2371613 C72.7233083,67.6108455 71.1676692,66.1867853 69.6969925,64.7003191 C69.1706767,64.1687402 68.8789474,63.5860334 69.1142857,62.8604695 C69.3706767,62.0709958 70.0887218,61.9454319 70.781203,61.9161086 C71.2278195,61.8973116 71.7270677,61.9288906 72.1233083,62.1108455 C74.8609023,63.3649808 77.6601504,64.5213718 80.2721805,66.0048304 C81.8255639,66.8875372 83.0857143,68.2935522 84.4556391,69.4897928 C85.1714286,70.1146049 85.7917293,70.9800184 85.4458647,71.8717477 L85.4458647,71.8717477 Z M51.8481203,10.2115973 C52.3285714,8.33866501 52.7969925,6.46046952 53.1917293,4.56798832 C53.4112782,3.51610862 53.462406,2.42964245 53.6052632,1.3612214 C53.7646617,0.167236439 54.1112782,-0.0981770949 55.2601504,0.0288905742 C55.8225564,0.0912965893 56.3864662,0.133401852 56.9511278,0.174755236 C58.2511278,0.270243958 59.6293233,1.34843945 59.9654135,2.58152215 C60.3293233,3.91610862 60.3609023,5.23340185 60.024812,6.61385298 C59.5015038,8.76272516 59.1526316,10.9537026 58.6721805,13.4213718 C58.375188,13.5349056 57.9676692,13.8040785 57.5428571,13.8318981 C55.8571429,13.94468 54.2894737,13.3882891 52.8082707,12.6912966 C51.8293233,12.2303943 51.5699248,11.2973116 51.8481203,10.2115973 L51.8481203,10.2115973 Z M97.9293233,45.5033267 C97.5007519,45.6221237 96.9548872,45.8131011 96.6082707,45.6544545 C94.0548872,44.4845297 91.2669173,44.576259 88.6,44.0371613 C87.1593985,43.7461838 85.7526316,43.2191161 84.3819549,42.6717477 C83.4631579,42.3055823 83.2007519,41.6033267 83.3842105,40.7431763 C83.5721805,39.8664846 84.2022556,39.5469357 85.0037594,39.5070861 C85.3932331,39.4875372 85.7879699,39.5912966 86.1962406,39.6416725 C86.1165414,38.9288906 85.881203,38.2349056 86.0045113,37.6108455 C86.2045113,36.5973116 86.9195489,36.189041 87.9165414,36.34468 C89.8887218,36.6521988 91.8578947,36.9785146 93.8218045,37.33265 C94.806015,37.5108455 95.3556391,38.1544545 95.9345865,39.7183643 C95.581203,40.1085898 95.2789474,40.4416725 94.8481203,40.9161086 C95.3962406,41.3341537 95.8879699,41.7807703 96.4481203,42.1108455 C96.8308271,42.3364094 97.3699248,42.3115973 97.7293233,42.5589658 C98.1729323,42.8649808 98.643609,43.2755071 98.8518797,43.7506951 C99.262406,44.6852816 98.937594,45.2228755 97.9293233,45.5033267 L97.9293233,45.5033267 Z M79.6954887,24.5852816 C79.5766917,23.0349056 80.2315789,22.2792665 81.5992481,21.6168605 C83.8669173,20.5183643 86.1834586,19.6521988 88.6383459,19.1288906 C88.9157895,19.0694921 89.1969925,19.0258831 89.6616541,18.9409206 C89.924812,19.0770109 90.3360902,19.2491913 90.7022556,19.4905447 C91.0804511,19.738665 91.418797,20.0491913 91.7684211,20.3394169 C93.6578947,21.9085898 93.5090226,22.9897928 91.2729323,24.0792665 C89.5413534,24.9236274 87.7571429,25.6815222 86.3481203,27.0679883 C85.8180451,27.589041 85.1481203,27.6454319 84.437594,27.4792665 C83.4511278,27.2484394 82.4593985,27.0401688 81.4676692,26.8349056 C80.2067669,26.5732515 79.7962406,25.8995673 79.6954887,24.5852816 L79.6954887,24.5852816 Z M69.1360902,15.5191161 C68.5909774,14.9048304 68.6699248,14.0642289 69.2969925,13.0356575 C70.2180451,11.5258831 71.2270677,10.1131011 72.6699248,9.02813869 C73.2466165,8.59505599 73.6172932,7.89731163 74.1511278,7.39280035 C74.5345865,7.02964245 75.0323308,6.78753719 75.2887218,6.61836426 C76.9503759,6.79881539 78.3007519,6.95896576 79.1406015,8.29580787 C79.5473684,8.94392817 79.681203,9.48528155 79.1345865,10.1394169 C77.1932331,12.4627252 75.0526316,14.5672364 72.5210526,16.2431763 C71.6556391,16.8161086 69.9338346,16.4176124 69.1360902,15.5191161 L69.1360902,15.5191161 Z M92.8766917,59.2830259 C92.4157895,59.5371613 91.7909774,59.4943041 91.2406015,59.5852816 C88.0052632,59.5063342 85.2451128,58.1687402 82.624812,56.4965597 C81.2165414,55.5980635 81.0571429,54.8454319 81.5917293,53.163477 C81.6902256,52.8537026 81.6443609,52.501071 81.6924812,52.1724996 C81.9015038,50.7484394 82.8609023,50.2747552 84.1631579,50.9529507 C84.3631579,51.057462 84.5842105,51.1627252 84.7285714,51.3266349 C85.8902256,52.638665 87.4233083,53.3619733 88.9421053,54.157462 C90.2969925,54.8672364 91.5676692,55.7649808 92.7879699,56.695056 C93.7834586,57.4537026 93.8030075,58.7724996 92.8766917,59.2830259 L92.8766917,59.2830259 Z M62.9887218,36.489041 C63.2097744,37.3123492 62.6736842,37.7544545 62.0857143,38.1491913 C61.4729323,38.5604695 60.7924812,38.8943041 60.2466165,39.3800184 C57.0984962,42.182274 54.0842105,45.1146049 51.6406015,48.5792665 C50.7571429,49.8311462 49.8421053,51.0604695 48.9466165,52.3033267 C48.2691729,53.2439282 47.3180451,53.7303943 46.2015038,53.8461838 C45.0849624,53.9619733 44.6105263,53.4048304 44.1503759,52.3115973 C43.2488722,50.1687402 42.2601504,48.0552064 41.1729323,46.0003191 C40.1947368,44.1506951 40.2796992,43.5303943 42.0736842,42.3897928 C42.5947368,42.0589658 43.1052632,41.7123492 43.7744361,41.2709958 C44.8338346,42.5905447 45.8360902,43.838665 46.8902256,45.151447 C50.4714286,42.5371613 53.8,40.1612214 56.6736842,37.2093417 C57.3639098,36.501071 58.2804511,35.9394169 59.1947368,35.5476876 C59.8857143,35.2521988 60.7421053,35.24468 61.5180451,35.2770109 C62.2308271,35.3063342 62.7902256,35.7484394 62.9887218,36.489041 L62.9887218,36.489041 Z" fill="#000000" sketch:type="MSShapeGroup"/></g><text x="0" y="110" fill="#000000" font-size="5px" font-weight="bold" font-family="'Helvetica Neue', Helvetica, Arial-Unicode, Arial, Sans-serif">Created by Nick Dominguez</text><text x="0" y="115" fill="#000000" font-size="5px" font-weight="bold" font-family="'Helvetica Neue', Helvetica, Arial-Unicode, Arial, Sans-serif">from the Noun Project</text></svg>